<?xml version="1.0"?><svg width="128" height="128" xmlns="http://www.w3.org/2000/svg">

 <metadata id="metadata3298">image/svg+xml</metadata>
 <g>
  <title>Layer 1</title>
  <g id="svg_1">
   <path fill="none" fill-rule="nonzero" stroke="#000000" stroke-width="6" stroke-linecap="round" stroke-linejoin="round" marker-start="none" marker-mid="none" marker-end="none" stroke-miterlimit="4" stroke-dashoffset="0" id="rect3162" d="m43.035622,6.4153c6.53336,6.41494 5.54726,11.26442 5.618279,19.0292l0.224281,24.521339l-31.822762,47.669956c-7.70109,12.839386 -2.49131,25.401253 10.13991,24.659454l73.043257,0.073807c13.653183,-0.057426 18.638214,-12.708916 8.057533,-26.039894l-30.186295,-46.244804l-0.56813,-24.560598c-0.071014,-7.76478 -1.14566,-12.595409 5.269279,-19.12877l-39.775352,0.02031z"/>
   <g id="layer2"/>
   <path fill="none" fill-rule="evenodd" stroke="#000000" stroke-width="6" stroke-linecap="round" stroke-miterlimit="4" id="path3180" d="m77.493759,25.174719l-10.905273,0"/>
   <path fill="none" fill-rule="evenodd" stroke="#000000" stroke-width="6" stroke-linecap="round" stroke-miterlimit="4" d="m77.493759,44.409069l-10.905273,0" id="path3182"/>
   <path fill="none" fill-rule="evenodd" stroke="#000000" stroke-width="6" stroke-linecap="round" stroke-miterlimit="4" id="path3184" d="m83.676224,64.330353l-10.905266,0"/>
   <path fill="none" fill-rule="evenodd" stroke="#000000" stroke-width="6" stroke-linecap="round" stroke-miterlimit="4" d="m94.323807,79.786522l-10.905266,0" id="path3186"/>
   <path fill="none" fill-rule="evenodd" stroke="#000000" stroke-width="6" stroke-linecap="round" stroke-miterlimit="4" id="path3188" d="m104.971397,95.242691l-10.905273,0"/>
  </g>
 </g>
</svg>